# xmcd CD database file
#
# Track frame offsets:
#	150
#	14975
#	29287
#	51677
#	70157
#	96350
#	126052
#	150402
#	165147
#
# Disc length: 2636 seconds
#
# Revision: 0
# Processed by: cddbd v1.5.1PL0 Copyright (c) Steve Scherf et al.
# Submitted via: CDex 1.51
#
DISCID=730a4a09
DTITLE=WEST ROAD BLUES BAND - BLUES POWER
DYEAR=1989
DGENRE=Blues
TTITLE0=Tramp
TTITLE1=T-Bone shuffle
TTITLE2=It's my own fault(treat me the way you wanna do)
TTITLE3=Cold cold feeling
TTITLE4=I'll drownin my own tears
TTITLE5=Ain't nobody's business,if I do
TTITLE6=First time I met the blues
TTITLE7=Yackty yak
TTITLE8=Blues after hours
EXTD=YEAR: 1989
EXTT0=
EXTT1=
EXTT2=
EXTT3=
EXTT4=
EXTT5=
EXTT6=
EXTT7=
EXTT8=
PLAYORDER=
